<?xml version="1.0" encoding="UTF-8"?>
<!-- This file is generated by npm run build:icons -->
<svg xmlns="http://www.w3.org/2000/svg" xmlns:xlink="http://www.w3.org/1999/xlink" width="0" height="0">
<defs>
<symbol viewBox="0 0 57 36" id="arrow">
<path fill-rule="evenodd" clip-rule="evenodd" d="M51.8788 19.5H0V16.5H51.8788L38.4395 3.06065L40.5608 0.939331L56.5608 16.9393C57.1466 17.5251 57.1466 18.4749 56.5608 19.0606L40.5608 35.0607L38.4395 32.9393L51.8788 19.5Z"></path>
</symbol>
<symbol viewBox="0 0 25 24" id="facebook">
<g clip-path="url(#clip0_20_991)">
<path fill-rule="evenodd" clip-rule="evenodd" d="M8.94481 13.2678V23.9319H14.165V13.3423H17.7446L18.6395 8.94244H14.2396C14.2396 8.94244 14.2396 6.85436 14.2396 5.66116C14.165 5.21371 14.3888 4.54254 15.1345 4.54254C16.2531 4.54254 17.67 4.54254 17.67 4.54254V0.0680695C17.67 0.0680695 15.4328 0.0680695 12.9718 0.0680695C11.3312 0.0680695 8.94481 2.08158 8.94481 4.16967C8.94481 6.33233 8.94481 8.71872 8.94481 8.71872H6.18555V13.1932L8.94481 13.2678Z"></path>
</g>
<defs>
<clipPath id="clip0_20_991">
<rect width="23.8639" height="23.8639" fill="white" transform="translate(0.219727 0.0680695)"></rect>
</clipPath>
</defs>
</symbol>
<symbol viewBox="0 0 24 24" id="github">
<path d="M11.9319 0.0680695C5.36937 0.0680695 0 5.43744 0 12C0 18.5626 5.36937 23.9319 11.9319 23.9319C18.4945 23.9319 23.8639 18.5626 23.8639 12C23.8639 5.43744 18.4945 0.0680695 11.9319 0.0680695ZM19.0165 19.0846C18.1216 19.9795 17.003 20.7252 15.8098 21.2472C15.5115 21.3964 15.2132 21.471 14.9149 21.6201V19.8303C14.9149 18.8609 14.6166 18.1897 13.9454 17.7422C14.3183 17.6677 14.6912 17.6677 15.0641 17.5931C15.4369 17.5185 15.7352 17.4439 16.1081 17.2948C16.481 17.1456 16.8539 16.9965 17.1522 16.8473C17.4504 16.6982 17.7487 16.3999 18.047 16.1016C18.3453 15.8033 18.5691 15.505 18.7182 15.1321C18.8674 14.7593 19.0165 14.3118 19.1657 13.7898C19.2402 13.2678 19.3148 12.6712 19.3148 12.0746C19.3148 10.8814 18.9419 9.83734 18.1216 9.01702C18.4945 8.12212 18.4199 7.07808 17.9725 5.95946H17.6742C17.4505 5.95946 17.0776 6.03404 16.5556 6.18318C16.0335 6.40691 15.4369 6.70521 14.7658 7.15265C13.8709 6.92893 12.9014 6.77978 11.8574 6.77978C10.8879 6.77978 9.91842 6.92893 9.02352 7.15265C8.57608 6.85436 8.2032 6.63063 7.83033 6.48148C7.60661 6.18318 7.30831 6.10861 7.08458 6.03404C6.86086 5.95946 6.63714 5.88489 6.41341 5.88489C6.18969 5.88489 6.11512 5.88489 6.04054 5.88489C5.96597 5.88489 5.96597 5.88489 5.89139 5.88489C5.44394 7.0035 5.44394 7.97297 5.74224 8.94244C4.92192 9.76276 4.54905 10.8068 4.54905 12C4.54905 12.5966 4.62362 13.1932 4.6982 13.7152C4.77277 14.2372 4.92192 14.6847 5.14565 15.0576C5.29479 15.4304 5.59309 15.7287 5.81682 16.027C6.11512 16.3253 6.41341 16.549 6.71171 16.7728C7.01001 16.9219 7.38288 17.1456 7.75576 17.2202C8.12863 17.3694 8.5015 17.4439 8.7998 17.5185C9.17267 17.5931 9.54555 17.6677 9.91842 17.6677C9.24725 18.1151 8.94895 18.7863 8.94895 19.7558V21.5455C8.57608 21.471 8.27778 21.3218 7.9049 21.1727C6.71171 20.6507 5.66767 19.9795 4.6982 19.01C3.8033 18.1151 3.05756 16.9965 2.53554 15.8033C2.01351 14.5355 1.71522 13.2678 1.71522 11.9254C1.71522 10.5831 2.01351 9.24074 2.53554 8.04755C3.05756 6.85436 3.72873 5.81031 4.6982 4.84084C5.59309 3.94595 6.71171 3.2002 7.9049 2.67818C9.17267 2.15616 10.4404 1.85786 11.7828 1.85786C13.1251 1.85786 14.4675 2.15616 15.6607 2.67818C16.8539 3.2002 17.8979 3.87137 18.8674 4.84084C19.7623 5.73574 20.508 6.85436 21.03 8.04755C21.5521 9.31532 21.8503 10.5831 21.8503 11.9254C21.8503 13.2678 21.5521 14.6101 21.03 15.8033C20.6572 17.0711 19.9114 18.1897 19.0165 19.0846Z"></path>
</symbol>
<symbol viewBox="0 0 24 24" id="heart--empty">
<path fill-rule="evenodd" clip-rule="evenodd" d="M11.9671 5.49851L12.004 5.53198L12.0383 5.5013C13.3231 4.37347 15.0451 3.83611 16.7708 4.06104L17.0174 4.09838C19.2354 4.48142 21.0525 6.07368 21.7235 8.22222C22.3945 10.3708 21.8065 12.7141 20.2007 14.2914L20.153 14.332L12.7037 21.7105C12.3439 22.0668 11.7812 22.0942 11.3902 21.7927L11.2963 21.7105L3.79198 14.278L3.62038 14.1036C2.14008 12.5333 1.61285 10.2806 2.25756 8.2071C2.92806 6.05069 4.75257 4.45339 6.9787 4.0739C8.79258 3.76468 10.6228 4.30667 11.9671 5.49851ZM5.20367 12.8615L12 19.592L18.7963 12.8615L18.835 12.826L18.9547 12.7031C19.9069 11.6571 20.2394 10.1792 19.8144 8.81843C19.3671 7.38607 18.1557 6.32457 16.677 6.06921C15.1983 5.81384 13.7011 6.40758 12.7992 7.60695C12.3978 8.14084 11.5958 8.13861 11.1974 7.6025C10.2993 6.39419 8.79888 5.79246 7.31479 6.04546C5.83071 6.29845 4.61437 7.36332 4.16737 8.80092C3.74272 10.1666 4.08073 11.649 5.04067 12.694L5.20367 12.8615Z"></path>
</symbol>
<symbol viewBox="0 0 24 24" id="heart--filled">
<path fill-rule="evenodd" clip-rule="evenodd" d="M11.9671 5.49851L12.004 5.53198L12.0383 5.5013C13.3231 4.37347 15.0451 3.83611 16.7708 4.06104L17.0174 4.09838C19.2354 4.48142 21.0525 6.07368 21.7235 8.22222C22.3945 10.3708 21.8065 12.7141 20.2007 14.2914L20.153 14.332L12.7037 21.7105C12.3439 22.0668 11.7812 22.0942 11.3902 21.7927L11.2963 21.7105L3.79198 14.278L3.62038 14.1036C2.14008 12.5333 1.61285 10.2806 2.25756 8.2071C2.92806 6.05069 4.75257 4.45339 6.9787 4.0739C8.79258 3.76468 10.6228 4.30667 11.9671 5.49851Z"></path>
</symbol>
<symbol viewBox="0 0 24 24" id="hide">
<path fill-rule="evenodd" clip-rule="evenodd" d="M2.29289 2.29289C2.65338 1.93241 3.22061 1.90468 3.6129 2.2097L3.70711 2.29289L17.9832 16.569C18.0385 16.6134 18.0897 16.6643 18.1356 16.7214L21.7071 20.2929C22.0976 20.6834 22.0976 21.3166 21.7071 21.7071C21.3466 22.0676 20.7794 22.0953 20.3871 21.7903L20.2929 21.7071L17.206 18.6203C15.6021 19.5382 13.8623 20 12 20C7.6044 20 3.96348 17.4514 1.13177 12.4962C0.956057 12.1887 0.956079 11.8112 1.13182 11.5037C2.32272 9.42032 3.65271 7.76402 5.12709 6.5413L2.29289 3.70711C1.90237 3.31658 1.90237 2.68342 2.29289 2.29289ZM6.54861 7.96282C5.40937 8.87487 4.34586 10.11 3.3617 11.6732L3.161 12L3.27859 12.1941C5.63002 15.9935 8.42551 17.8901 11.709 17.9954L12 18C13.326 18 14.5644 17.7155 15.7281 17.1423L13.2947 14.7089C12.1786 15.2434 10.8005 15.0479 9.8761 14.1229C8.95222 13.1984 8.75747 11.8212 9.29159 10.7058L6.54861 7.96282ZM11.2385 12.6527L11.3478 12.762C11.3283 12.7453 11.3093 12.7277 11.2908 12.7092C11.2725 12.6909 11.2551 12.672 11.2385 12.6527ZM11.9996 3.99994C16.3951 3.99994 20.0361 6.54859 22.8678 11.5038C23.0435 11.8113 23.0435 12.1888 22.8677 12.4963C22.0529 13.9217 21.1749 15.1455 20.2309 16.1668C19.8561 16.5723 19.2234 16.5972 18.8178 16.2224C18.4122 15.8475 18.3873 15.2148 18.7622 14.8092C19.4125 14.1056 20.0351 13.283 20.6292 12.3407L20.8386 12L20.721 11.8059C18.3695 8.00649 15.5739 6.10986 12.2873 6.00458L11.9961 5.99993C11.1984 5.99716 10.4044 6.10708 9.6376 6.32643C9.10661 6.47833 8.55302 6.17102 8.40113 5.64003C8.24923 5.10905 8.55654 4.55546 9.08753 4.40357C10.0355 4.1324 11.017 3.99652 11.9996 3.99994Z"></path>
</symbol>
<symbol viewBox="0 0 25 24" id="linkedin">
<g clip-path="url(#clip0_20_993)">
<path d="M6.02757 2.6036C6.02757 4.02052 4.98353 5.13914 3.26831 5.13914C1.70225 5.13914 0.658203 4.02052 0.658203 2.6036C0.658203 1.18669 1.70225 0.0680695 3.34289 0.0680695C5.0581 0.0680695 6.02757 1.18669 6.02757 2.6036ZM0.807352 23.6336V7.22723H5.87842V23.6336H0.807352ZM8.93598 12.4474C8.93598 10.4339 8.86141 8.71872 8.78683 7.22723H13.1867L13.4105 9.53904H13.485C14.1562 8.495 15.7968 6.85436 18.5561 6.85436C21.912 6.85436 24.4475 9.09159 24.4475 13.9389V23.6336H19.3764V14.5355C19.3764 12.4474 18.6307 10.956 16.7663 10.956C15.3494 10.956 14.5291 11.9254 14.1562 12.8949C14.0816 13.1932 14.0816 13.6406 14.0816 14.1627V23.6336H9.01056V12.4474H8.93598Z"></path>
</g>
<defs>
<clipPath id="clip0_20_993">
<rect width="23.8639" height="23.8639" fill="white" transform="translate(0.658203 0.0680695)"></rect>
</clipPath>
</defs>
</symbol>
<symbol viewBox="0 0 24 24" id="show">
<path fill-rule="evenodd" clip-rule="evenodd" d="M12 4C16.2909 4 19.8627 6.4287 22.6646 11.154L22.8844 11.5329L22.9302 11.6328L22.9591 11.716L22.9736 11.7706L22.988 11.853L22.999 11.9535L22.9982 12.0639L22.9849 12.1744C22.9784 12.2112 22.9698 12.2477 22.9591 12.284L22.9203 12.3916L22.8844 12.4671L22.8682 12.4962C20.1039 17.3334 16.5685 19.8773 12.3127 19.9957L12 20C7.6044 20 3.96348 17.4514 1.13177 12.4962C0.956077 12.1887 0.956077 11.8113 1.13177 11.5038C3.96348 6.54862 7.6044 4 12 4ZM12 6C8.59033 6 5.69918 7.89478 3.27859 11.8059L3.161 12L3.27859 12.1941C5.63002 15.9935 8.42551 17.8901 11.709 17.9954L12 18C15.4097 18 18.3008 16.1052 20.7214 12.1941L20.838 12L20.7214 11.8059C18.37 8.00652 15.5745 6.10992 12.291 6.00464L12 6ZM12 9C10.3431 9 9 10.3431 9 12C9 13.6569 10.3431 15 12 15C13.6569 15 15 13.6569 15 12C15 10.3431 13.6569 9 12 9ZM12 11C12.5523 11 13 11.4477 13 12C13 12.5523 12.5523 13 12 13C11.4477 13 11 12.5523 11 12C11 11.4477 11.4477 11 12 11Z"></path>
</symbol>
<symbol viewBox="0 0 24 24" id="twitter">
<g clip-path="url(#clip0_20_994)">
<path d="M14.2737 10.1635L23.2022 0H21.0872L13.3312 8.82302L7.14122 0H0L9.36257 13.3432L0 23.9999H2.11503L10.3002 14.6805L16.8387 23.9999H23.9799M2.87839 1.56189H6.12767L21.0856 22.5148H17.8355"></path>
</g>
<defs>
<clipPath id="clip0_20_994">
<rect width="24" height="24" fill="white"></rect>
</clipPath>
</defs>
</symbol>
<symbol viewBox="0 0 33 17" id="up">
<path d="M16.2573 1.06474e-06L0 16.2573H32.5146L16.2573 1.06474e-06Z"></path>
</symbol>
<symbol viewBox="0 0 25 24" id="youtube">
<g clip-path="url(#clip0_20_992)">
<path fill-rule="evenodd" clip-rule="evenodd" d="M23.2583 5.43744C22.5871 4.24425 21.916 4.02052 20.499 3.94595C19.0821 3.87137 15.5025 3.7968 12.3704 3.7968C9.23828 3.7968 5.6587 3.87137 4.24178 3.94595C2.82486 4.02052 2.07912 4.24425 1.48252 5.43744C0.811349 6.55606 0.438477 8.56957 0.438477 12.1491C0.438477 15.6542 0.811349 17.6677 1.48252 18.8609C2.15369 20.0541 2.82486 20.2778 4.24178 20.3524C5.6587 20.4269 9.23828 20.5015 12.3704 20.5015C15.5025 20.5015 19.0821 20.4269 20.499 20.3524C21.916 20.2778 22.6617 20.0541 23.2583 18.8609C23.9295 17.6677 24.3023 15.6542 24.3023 12.1491C24.3023 8.56957 23.9295 6.55606 23.2583 5.43744ZM9.98402 16.4745V7.74925L16.7703 12.1491L9.98402 16.4745Z"></path>
</g>
<defs>
<clipPath id="clip0_20_992">
<rect width="23.8639" height="23.8639" fill="white" transform="translate(0.438477 0.0680695)"></rect>
</clipPath>
</defs>
</symbol>
</defs>
</svg>
