<svg width="24" height="24" viewBox="0 0 24 24" fill="none" xmlns="http://www.w3.org/2000/svg">
<path d="M11.9319 0.0680695C5.36937 0.0680695 0 5.43744 0 12C0 18.5626 5.36937 23.9319 11.9319 23.9319C18.4945 23.9319 23.8639 18.5626 23.8639 12C23.8639 5.43744 18.4945 0.0680695 11.9319 0.0680695ZM19.0165 19.0846C18.1216 19.9795 17.003 20.7252 15.8098 21.2472C15.5115 21.3964 15.2132 21.471 14.9149 21.6201V19.8303C14.9149 18.8609 14.6166 18.1897 13.9454 17.7422C14.3183 17.6677 14.6912 17.6677 15.0641 17.5931C15.4369 17.5185 15.7352 17.4439 16.1081 17.2948C16.481 17.1456 16.8539 16.9965 17.1522 16.8473C17.4504 16.6982 17.7487 16.3999 18.047 16.1016C18.3453 15.8033 18.5691 15.505 18.7182 15.1321C18.8674 14.7593 19.0165 14.3118 19.1657 13.7898C19.2402 13.2678 19.3148 12.6712 19.3148 12.0746C19.3148 10.8814 18.9419 9.83734 18.1216 9.01702C18.4945 8.12212 18.4199 7.07808 17.9725 5.95946H17.6742C17.4505 5.95946 17.0776 6.03404 16.5556 6.18318C16.0335 6.40691 15.4369 6.70521 14.7658 7.15265C13.8709 6.92893 12.9014 6.77978 11.8574 6.77978C10.8879 6.77978 9.91842 6.92893 9.02352 7.15265C8.57608 6.85436 8.2032 6.63063 7.83033 6.48148C7.60661 6.18318 7.30831 6.10861 7.08458 6.03404C6.86086 5.95946 6.63714 5.88489 6.41341 5.88489C6.18969 5.88489 6.11512 5.88489 6.04054 5.88489C5.96597 5.88489 5.96597 5.88489 5.89139 5.88489C5.44394 7.0035 5.44394 7.97297 5.74224 8.94244C4.92192 9.76276 4.54905 10.8068 4.54905 12C4.54905 12.5966 4.62362 13.1932 4.6982 13.7152C4.77277 14.2372 4.92192 14.6847 5.14565 15.0576C5.29479 15.4304 5.59309 15.7287 5.81682 16.027C6.11512 16.3253 6.41341 16.549 6.71171 16.7728C7.01001 16.9219 7.38288 17.1456 7.75576 17.2202C8.12863 17.3694 8.5015 17.4439 8.7998 17.5185C9.17267 17.5931 9.54555 17.6677 9.91842 17.6677C9.24725 18.1151 8.94895 18.7863 8.94895 19.7558V21.5455C8.57608 21.471 8.27778 21.3218 7.9049 21.1727C6.71171 20.6507 5.66767 19.9795 4.6982 19.01C3.8033 18.1151 3.05756 16.9965 2.53554 15.8033C2.01351 14.5355 1.71522 13.2678 1.71522 11.9254C1.71522 10.5831 2.01351 9.24074 2.53554 8.04755C3.05756 6.85436 3.72873 5.81031 4.6982 4.84084C5.59309 3.94595 6.71171 3.2002 7.9049 2.67818C9.17267 2.15616 10.4404 1.85786 11.7828 1.85786C13.1251 1.85786 14.4675 2.15616 15.6607 2.67818C16.8539 3.2002 17.8979 3.87137 18.8674 4.84084C19.7623 5.73574 20.508 6.85436 21.03 8.04755C21.5521 9.31532 21.8503 10.5831 21.8503 11.9254C21.8503 13.2678 21.5521 14.6101 21.03 15.8033C20.6572 17.0711 19.9114 18.1897 19.0165 19.0846Z" fill="#636363"/>
</svg>
