<svg width="25" height="24" viewBox="0 0 25 24" fill="none" xmlns="http://www.w3.org/2000/svg">
<g clip-path="url(#clip0_20_993)">
<path d="M6.02757 2.6036C6.02757 4.02052 4.98353 5.13914 3.26831 5.13914C1.70225 5.13914 0.658203 4.02052 0.658203 2.6036C0.658203 1.18669 1.70225 0.0680695 3.34289 0.0680695C5.0581 0.0680695 6.02757 1.18669 6.02757 2.6036ZM0.807352 23.6336V7.22723H5.87842V23.6336H0.807352ZM8.93598 12.4474C8.93598 10.4339 8.86141 8.71872 8.78683 7.22723H13.1867L13.4105 9.53904H13.485C14.1562 8.495 15.7968 6.85436 18.5561 6.85436C21.912 6.85436 24.4475 9.09159 24.4475 13.9389V23.6336H19.3764V14.5355C19.3764 12.4474 18.6307 10.956 16.7663 10.956C15.3494 10.956 14.5291 11.9254 14.1562 12.8949C14.0816 13.1932 14.0816 13.6406 14.0816 14.1627V23.6336H9.01056V12.4474H8.93598Z" fill="#636363"/>
</g>
<defs>
<clipPath id="clip0_20_993">
<rect width="23.8639" height="23.8639" fill="white" transform="translate(0.658203 0.0680695)"/>
</clipPath>
</defs>
</svg>
