<svg width="25" height="24" viewBox="0 0 25 24" fill="none" xmlns="http://www.w3.org/2000/svg">
<g clip-path="url(#clip0_20_992)">
<path fill-rule="evenodd" clip-rule="evenodd" d="M23.2583 5.43744C22.5871 4.24425 21.916 4.02052 20.499 3.94595C19.0821 3.87137 15.5025 3.7968 12.3704 3.7968C9.23828 3.7968 5.6587 3.87137 4.24178 3.94595C2.82486 4.02052 2.07912 4.24425 1.48252 5.43744C0.811349 6.55606 0.438477 8.56957 0.438477 12.1491C0.438477 15.6542 0.811349 17.6677 1.48252 18.8609C2.15369 20.0541 2.82486 20.2778 4.24178 20.3524C5.6587 20.4269 9.23828 20.5015 12.3704 20.5015C15.5025 20.5015 19.0821 20.4269 20.499 20.3524C21.916 20.2778 22.6617 20.0541 23.2583 18.8609C23.9295 17.6677 24.3023 15.6542 24.3023 12.1491C24.3023 8.56957 23.9295 6.55606 23.2583 5.43744ZM9.98402 16.4745V7.74925L16.7703 12.1491L9.98402 16.4745Z" fill="#636363"/>
</g>
<defs>
<clipPath id="clip0_20_992">
<rect width="23.8639" height="23.8639" fill="white" transform="translate(0.438477 0.0680695)"/>
</clipPath>
</defs>
</svg>
